<svg xmlns="http://www.w3.org/2000/svg" width="960" height="540" viewBox="0 0 960 540" role="img" aria-labelledby="title desc">
<title id="title">Lund2013 derived 60 Hz performance</title>
<desc id="desc">Primary RA-labelled participant-held-out benchmark. Derived from a native 500 Hz corpus; not native GP3 validation.</desc>
<rect x="1" y="1" width="958" height="538" rx="20" fill="#ffffff" stroke="#d7dce3"/>
<text x="90" y="44" font-family="Inter,Segoe UI,Arial,sans-serif" font-size="28" font-weight="700" fill="#111827">Lund2013 derived 60 Hz performance</text>
<text x="90" y="72" font-family="Inter,Segoe UI,Arial,sans-serif" font-size="15" fill="#4b5563">Primary RA-labelled participant-held-out benchmark</text>
<line x1="90" y1="450.0" x2="925" y2="450.0" stroke="#e5e7eb" stroke-width="1"/>
<text x="76" y="455.0" text-anchor="end" font-family="Inter,Segoe UI,Arial,sans-serif" font-size="13" fill="#6b7280">0.0</text>
<line x1="90" y1="382.0" x2="925" y2="382.0" stroke="#e5e7eb" stroke-width="1"/>
<text x="76" y="387.0" text-anchor="end" font-family="Inter,Segoe UI,Arial,sans-serif" font-size="13" fill="#6b7280">0.2</text>
<line x1="90" y1="314.0" x2="925" y2="314.0" stroke="#e5e7eb" stroke-width="1"/>
<text x="76" y="319.0" text-anchor="end" font-family="Inter,Segoe UI,Arial,sans-serif" font-size="13" fill="#6b7280">0.4</text>
<line x1="90" y1="246.0" x2="925" y2="246.0" stroke="#e5e7eb" stroke-width="1"/>
<text x="76" y="251.0" text-anchor="end" font-family="Inter,Segoe UI,Arial,sans-serif" font-size="13" fill="#6b7280">0.6</text>
<line x1="90" y1="178.0" x2="925" y2="178.0" stroke="#e5e7eb" stroke-width="1"/>
<text x="76" y="183.0" text-anchor="end" font-family="Inter,Segoe UI,Arial,sans-serif" font-size="13" fill="#6b7280">0.8</text>
<line x1="90" y1="110.0" x2="925" y2="110.0" stroke="#e5e7eb" stroke-width="1"/>
<text x="76" y="115.0" text-anchor="end" font-family="Inter,Segoe UI,Arial,sans-serif" font-size="13" fill="#6b7280">1.0</text>
<text x="229.2" y="484.0" text-anchor="middle" font-family="Inter,Segoe UI,Arial,sans-serif" font-size="14" font-weight="600" fill="#374151">Balanced accuracy</text>
<rect x="124.0" y="318.1" width="63.1" height="131.9" rx="5" fill="#2563eb"/><text x="155.5" y="311.1" text-anchor="middle" font-family="Inter,Segoe UI,Arial,sans-serif" font-size="12" font-weight="700" fill="#374151">0.388</text>
<rect x="197.1" y="222.2" width="63.1" height="227.8" rx="5" fill="#0f766e"/><text x="228.7" y="215.2" text-anchor="middle" font-family="Inter,Segoe UI,Arial,sans-serif" font-size="12" font-weight="700" fill="#374151">0.670</text>
<rect x="270.2" y="219.1" width="63.1" height="230.9" rx="5" fill="#b45309"/><text x="301.8" y="212.1" text-anchor="middle" font-family="Inter,Segoe UI,Arial,sans-serif" font-size="12" font-weight="700" fill="#374151">0.679</text>
<text x="507.5" y="484.0" text-anchor="middle" font-family="Inter,Segoe UI,Arial,sans-serif" font-size="14" font-weight="600" fill="#374151">Macro-F1</text>
<rect x="402.3" y="352.4" width="63.1" height="97.6" rx="5" fill="#2563eb"/><text x="433.9" y="345.4" text-anchor="middle" font-family="Inter,Segoe UI,Arial,sans-serif" font-size="12" font-weight="700" fill="#374151">0.287</text>
<rect x="475.4" y="247.7" width="63.1" height="202.3" rx="5" fill="#0f766e"/><text x="507.0" y="240.7" text-anchor="middle" font-family="Inter,Segoe UI,Arial,sans-serif" font-size="12" font-weight="700" fill="#374151">0.595</text>
<rect x="548.6" y="229.3" width="63.1" height="220.7" rx="5" fill="#b45309"/><text x="580.1" y="222.3" text-anchor="middle" font-family="Inter,Segoe UI,Arial,sans-serif" font-size="12" font-weight="700" fill="#374151">0.649</text>
<text x="785.8" y="484.0" text-anchor="middle" font-family="Inter,Segoe UI,Arial,sans-serif" font-size="14" font-weight="600" fill="#374151">Event-F1</text>
<rect x="680.7" y="237.2" width="63.1" height="212.8" rx="5" fill="#2563eb"/><text x="712.2" y="230.2" text-anchor="middle" font-family="Inter,Segoe UI,Arial,sans-serif" font-size="12" font-weight="700" fill="#374151">0.626</text>
<rect x="753.8" y="300.4" width="63.1" height="149.6" rx="5" fill="#0f766e"/><text x="785.3" y="293.4" text-anchor="middle" font-family="Inter,Segoe UI,Arial,sans-serif" font-size="12" font-weight="700" fill="#374151">0.440</text>
<rect x="826.9" y="268.1" width="63.1" height="181.9" rx="5" fill="#b45309"/><text x="858.4" y="261.1" text-anchor="middle" font-family="Inter,Segoe UI,Arial,sans-serif" font-size="12" font-weight="700" fill="#374151">0.535</text>
<rect x="90" y="495" width="14" height="14" rx="3" fill="#2563eb"/><text x="112" y="507" font-family="Inter,Segoe UI,Arial,sans-serif" font-size="13" fill="#374151">I-VT</text>
<rect x="240" y="495" width="14" height="14" rx="3" fill="#0f766e"/><text x="262" y="507" font-family="Inter,Segoe UI,Arial,sans-serif" font-size="13" fill="#374151">RandomForest</text>
<rect x="390" y="495" width="14" height="14" rx="3" fill="#b45309"/><text x="412" y="507" font-family="Inter,Segoe UI,Arial,sans-serif" font-size="13" fill="#374151">ContextMLP</text>
<text x="925" y="516" text-anchor="end" font-family="Inter,Segoe UI,Arial,sans-serif" font-size="11" fill="#6b7280">Derived from a native 500 Hz corpus; not native GP3 validation.</text>
</svg>